<svg version="1.1" id="Layer_1" xmlns="http://www.w3.org/2000/svg" xmlns:xlink="http://www.w3.org/1999/xlink" x="0px" y="0px"
	 width="100%" viewBox="0 0 500 500" enable-background="new 0 0 500 500" xml:space="preserve">
<path fill="#000000" opacity="1.000000" stroke="none" 
	d="
M501.000000,187.000000 
	C501.000000,291.999969 501.000000,396.499969 501.000000,500.999939 
	C334.333405,500.999969 167.666794,500.999969 1.000146,501.000000 
	C1.000097,334.333435 1.000097,167.666870 1.000049,1.000235 
	C167.666519,1.000157 334.333038,1.000157 500.999786,1.000078 
	C501.000000,62.833332 501.000000,124.666664 501.000000,187.000000 
M362.239166,275.241180 
	C362.239166,275.241180 362.157654,275.526520 361.711823,275.830353 
	C360.986542,276.271667 360.261261,276.712982 359.243195,277.238342 
	C359.243195,277.238342 359.156311,277.530304 358.546661,277.917175 
	C357.885620,277.983276 357.168671,277.904999 356.571594,278.136261 
	C334.607697,286.644470 312.631073,295.120972 290.720490,303.764862 
	C286.292328,305.511841 282.119781,307.906860 277.197479,310.348083 
	C276.131653,314.500977 274.178986,318.646027 274.142059,322.808044 
	C273.876617,352.727783 274.092560,382.651642 273.876312,412.572174 
	C273.850922,416.089539 272.127075,419.594666 270.874268,423.649475 
	C269.762238,424.484161 268.650177,425.318817 267.243317,426.238525 
	C267.243317,426.238525 267.155518,426.532532 266.588257,426.901703 
	C264.238068,427.985687 261.887878,429.069672 259.244171,430.237488 
	C259.244171,430.237488 259.156464,430.529907 258.843750,430.739532 
	C258.501831,430.881927 258.159943,431.024292 257.138397,431.034302 
	C256.607117,431.406647 256.075836,431.778961 254.938080,432.586670 
	C249.625687,435.113342 244.313293,437.640015 238.184280,440.021240 
	C236.804016,439.976379 235.423752,439.931549 233.795837,439.313416 
	C233.197235,439.264496 232.598633,439.215576 231.359528,438.864502 
	C225.363892,435.267273 223.940689,429.648865 223.958801,423.108612 
	C224.048996,390.552490 224.000122,357.996033 223.999939,325.439667 
	C223.999863,314.389709 218.974106,309.592438 207.268143,310.252686 
	C203.480484,312.148346 199.692841,314.044006 195.976746,315.977051 
	C195.976746,315.977051 195.939514,315.905396 195.331543,316.157013 
	C194.276581,317.104889 193.221619,318.052795 191.806000,319.717438 
	C191.204010,322.199249 190.081696,324.679993 190.076736,327.162994 
	C189.974808,378.396912 189.988724,429.631104 190.049103,480.865173 
	C190.051117,482.577148 190.777771,484.288269 191.026352,486.610016 
	C191.314758,487.089294 191.603165,487.568573 191.993408,488.719208 
	C193.290817,490.160309 194.588211,491.601440 196.150940,493.657959 
	C197.100616,494.049744 198.050293,494.441528 199.737503,495.211700 
	C203.035477,495.055084 206.694321,495.765656 209.561096,494.572784 
	C216.991501,491.480927 224.094833,487.593689 231.289948,483.947449 
	C253.761734,472.559479 276.182343,461.069885 298.695740,449.764984 
	C305.882538,446.156158 309.185608,440.886505 309.108124,432.628052 
	C308.831665,403.149078 309.069611,373.665619 308.947540,344.184540 
	C308.919525,337.416199 311.819611,332.935913 317.971039,330.536774 
	C331.371338,325.310638 344.804962,320.169617 358.237091,315.025543 
	C369.101532,310.864807 380.020294,306.843414 390.845947,302.584869 
	C398.861877,299.431580 400.999298,296.024567 400.999603,287.380432 
	C401.000671,257.399170 401.094025,227.417175 400.861328,197.437729 
	C400.836823,194.280518 398.888885,191.138229 397.905731,187.471237 
	C397.610260,187.369720 397.314758,187.268188 396.331116,186.838364 
	C392.887634,185.614471 389.444153,184.390564 385.259583,183.260193 
	C377.579163,186.162582 369.879364,189.014877 362.222168,191.977402 
	C344.152496,198.968491 326.104980,206.016922 308.044922,213.033005 
	C291.792786,219.346710 275.543640,225.668182 259.279175,231.950027 
	C240.000885,239.395874 220.684341,246.743210 201.427826,254.244797 
	C184.587570,260.805115 167.807526,267.520020 150.339249,274.023895 
	C149.893066,274.071472 149.446884,274.119080 148.282959,274.239410 
	C146.521988,274.215149 144.761002,274.190887 142.361115,273.865784 
	C136.573746,270.158508 134.341171,264.966125 134.902985,258.072388 
	C135.374954,252.281235 135.141632,246.416672 134.961319,240.592636 
	C134.770020,234.413498 137.509232,230.322754 143.108276,227.987762 
	C148.627960,225.685883 154.097061,223.250687 159.681793,221.118759 
	C193.345581,208.267838 227.068726,195.571976 260.709778,182.662048 
	C304.612000,165.814377 348.455719,148.814285 392.326233,131.884079 
	C397.589081,129.853073 400.998871,124.771561 400.999176,118.885941 
	C401.000885,85.740356 400.931427,52.594471 401.079987,19.449556 
	C401.100311,14.911537 399.995483,11.405726 395.849030,8.342010 
	C394.899353,7.950228 393.949707,7.558445 392.267212,6.792562 
	C389.845032,6.583930 387.422852,6.375299 384.256622,6.262671 
	C376.714661,9.097553 369.150574,11.875040 361.634857,14.777907 
	C337.367188,24.151058 313.130615,33.604729 288.857178,42.962837 
	C260.518890,53.888050 232.142426,64.714264 203.820282,75.680962 
	C201.040192,76.757446 198.524109,78.515755 195.226501,80.257141 
	C193.817657,83.745773 191.323135,87.194618 191.193558,90.730148 
	C190.709412,103.938942 190.954330,117.176476 191.051849,130.402298 
	C191.065628,132.270782 191.777756,134.134109 192.027695,136.655792 
	C192.670975,137.475357 193.314270,138.294937 194.239014,139.755295 
	C201.174332,146.849411 208.474060,143.645599 215.869339,140.645035 
	C222.539581,137.938644 225.156113,132.917389 225.017838,126.010269 
	C224.924500,121.348076 224.897781,116.679665 225.026947,112.019173 
	C225.180298,106.486557 227.961990,102.136131 232.886719,100.150887 
	C247.718811,94.171814 262.751099,88.690292 277.692841,82.982040 
	C301.246033,73.983910 324.964447,65.382149 348.246063,55.727875 
	C356.994781,52.100010 364.746185,57.470695 365.865356,64.373108 
	C367.847076,76.595406 368.013184,88.905647 364.881805,101.639999 
	C364.216370,102.412529 363.550934,103.185059 362.423798,104.085228 
	C362.127655,104.270050 361.972229,104.536850 361.295135,105.186852 
	C342.599091,112.773499 323.990082,120.584152 305.185486,127.891426 
	C280.358002,137.539124 255.327316,146.662842 230.473907,156.245010 
	C192.805298,170.768021 155.196213,185.446182 117.612511,200.187607 
	C112.879799,202.043900 108.453651,204.681839 103.200676,207.285934 
	C102.467125,209.539383 101.104042,211.790222 101.094604,214.046692 
	C100.956894,246.988541 100.982567,279.931183 101.049698,312.873474 
	C101.053185,314.586700 101.777786,316.298492 102.094276,318.528748 
	C102.389763,318.630280 102.685249,318.731812 103.633545,319.132050 
	C107.859528,323.555054 112.834496,324.923737 118.628532,322.721954 
	C128.445801,318.991333 138.255844,315.241486 148.056244,311.466858 
	C173.532471,301.654663 199.008530,291.842041 224.471954,281.996735 
	C247.830154,272.965363 271.174774,263.898834 294.519684,254.833206 
	C312.442902,247.873016 330.308472,240.760635 348.298462,233.977905 
	C356.038574,231.059662 361.130951,233.153564 365.021027,240.927139 
	C365.069550,250.951416 365.118103,260.975708 364.924744,271.566345 
	C364.683136,272.073517 364.441528,272.580688 363.941650,273.564056 
	C363.469177,274.095581 362.996674,274.627075 362.239166,275.241180 
z"/>
<path fill="#8976FF" opacity="1.000000" stroke="none" 
	d="
M234.043488,439.886688 
	C235.423752,439.931549 236.804016,439.976379 238.709534,440.372009 
	C243.419815,441.403870 253.865768,436.565857 255.560928,433.130005 
	C255.689301,432.869812 255.556122,432.480530 255.544540,432.151276 
	C256.075836,431.778961 256.607117,431.406647 257.622620,431.336182 
	C258.456726,431.268707 258.806610,430.899323 259.156464,430.529907 
	C259.156464,430.529907 259.244171,430.237488 259.776611,430.350281 
	C263.176056,430.171570 266.864136,431.310364 267.155518,426.532532 
	C267.155518,426.532532 267.243317,426.238525 267.780945,426.347107 
	C271.081055,426.886475 271.891388,425.643707 271.190613,423.105469 
	C272.127075,419.594666 273.850922,416.089539 273.876312,412.572174 
	C274.092560,382.651642 273.876617,352.727783 274.142059,322.808044 
	C274.178986,318.646027 276.131653,314.500977 277.923645,310.169189 
	C280.580078,309.549011 282.599060,309.337524 284.427216,308.631714 
	C308.408905,299.372498 332.373871,290.069427 356.294678,280.654572 
	C357.475525,280.189789 358.212585,278.597534 359.156311,277.530304 
	C359.156311,277.530304 359.243195,277.238342 359.736786,277.331665 
	C360.872803,276.792175 361.515228,276.159363 362.157654,275.526520 
	C362.157654,275.526520 362.239166,275.241180 362.734131,275.249756 
	C363.552704,274.534821 363.876312,273.811340 364.199951,273.087860 
	C364.441528,272.580688 364.683136,272.073517 365.383636,271.103943 
	C366.206177,269.932037 366.878845,269.225769 366.886383,268.512482 
	C366.975128,260.078888 367.029297,251.643219 366.899384,243.211090 
	C366.882782,242.132019 365.771057,241.069824 365.166656,239.999802 
	C361.130951,233.153564 356.038574,231.059662 348.298462,233.977905 
	C330.308472,240.760635 312.442902,247.873016 294.519684,254.833206 
	C271.174774,263.898834 247.830154,272.965363 224.471954,281.996735 
	C199.008530,291.842041 173.532471,301.654663 148.056244,311.466858 
	C138.255844,315.241486 128.445801,318.991333 118.628532,322.721954 
	C112.834496,324.923737 107.859528,323.555054 103.189468,318.828552 
	C102.574448,318.328949 102.381538,318.157593 102.166664,318.010956 
	C101.777786,316.298492 101.053185,314.586700 101.049698,312.873474 
	C100.982567,279.931183 100.956894,246.988541 101.094604,214.046692 
	C101.104042,211.790222 102.467125,209.539383 103.945740,207.124954 
	C105.985260,206.704346 107.350380,206.627411 108.563797,206.158188 
	C135.571320,195.714539 162.563934,185.232285 189.555634,174.747772 
	C220.271103,162.816833 250.975830,150.858215 281.698608,138.946152 
	C306.989929,129.139999 332.321899,119.437820 357.558319,109.492752 
	C359.351410,108.786133 360.505981,106.459152 361.957458,104.885620 
	C361.972229,104.536850 362.127655,104.270050 363.038666,103.982529 
	C364.166626,102.952904 364.679688,102.025963 365.192780,101.099030 
	C368.013184,88.905647 367.847076,76.595406 365.865356,64.373108 
	C364.746185,57.470695 356.994781,52.100010 348.246063,55.727875 
	C324.964447,65.382149 301.246033,73.983910 277.692841,82.982040 
	C262.751099,88.690292 247.718811,94.171814 232.886719,100.150887 
	C227.961990,102.136131 225.180298,106.486557 225.026947,112.019173 
	C224.897781,116.679665 224.924500,121.348076 225.017838,126.010269 
	C225.156113,132.917389 222.539581,137.938644 215.869339,140.645035 
	C208.474060,143.645599 201.174332,146.849411 194.088272,139.102066 
	C193.347244,137.632492 192.756958,136.816147 192.166656,135.999817 
	C191.777756,134.134109 191.065628,132.270782 191.051849,130.402298 
	C190.954330,117.176476 190.709412,103.938942 191.193558,90.730148 
	C191.323135,87.194618 193.817657,83.745773 195.957779,80.110596 
	C206.378876,76.490776 216.137009,73.195847 225.747116,69.514496 
	C277.666870,49.625568 329.555756,29.655861 381.415314,9.610575 
	C382.841095,9.059449 383.815674,7.340851 385.000671,6.166664 
	C387.422852,6.375299 389.845032,6.583930 392.759766,7.280201 
	C394.206299,8.164366 395.160339,8.560891 396.114349,8.957420 
	C399.995483,11.405726 401.100311,14.911537 401.079987,19.449556 
	C400.931427,52.594471 401.000885,85.740356 400.999176,118.885941 
	C400.998871,124.771561 397.589081,129.853073 392.326233,131.884079 
	C348.455719,148.814285 304.612000,165.814377 260.709778,182.662048 
	C227.068726,195.571976 193.345581,208.267838 159.681793,221.118759 
	C154.097061,223.250687 148.627960,225.685883 143.108276,227.987762 
	C137.509232,230.322754 134.770020,234.413498 134.961319,240.592636 
	C135.141632,246.416672 135.374954,252.281235 134.902985,258.072388 
	C134.341171,264.966125 136.573746,270.158508 142.808899,274.322632 
	C145.334061,276.100250 147.599121,279.180237 149.000702,274.166687 
	C149.446884,274.119080 149.893066,274.071472 150.787811,274.374146 
	C152.755981,274.660461 154.427719,274.991577 155.772568,274.473755 
	C178.598251,265.684601 201.381943,256.786499 224.177734,247.919693 
	C255.035202,235.917175 285.881409,223.885605 316.758514,211.933746 
	C338.790192,203.405762 360.876831,195.019699 382.888580,186.440964 
	C384.158447,185.946045 384.973785,184.285004 386.000671,183.166656 
	C389.444153,184.390564 392.887634,185.614471 396.792847,187.156677 
	C397.425537,187.671066 397.618469,187.842407 397.833344,187.989014 
	C398.888885,191.138229 400.836823,194.280518 400.861328,197.437729 
	C401.094025,227.417175 401.000671,257.399170 400.999603,287.380432 
	C400.999298,296.024567 398.861877,299.431580 390.845947,302.584869 
	C380.020294,306.843414 369.101532,310.864807 358.237091,315.025543 
	C344.804962,320.169617 331.371338,325.310638 317.971039,330.536774 
	C311.819611,332.935913 308.919525,337.416199 308.947540,344.184540 
	C309.069611,373.665619 308.831665,403.149078 309.108124,432.628052 
	C309.185608,440.886505 305.882538,446.156158 298.695740,449.764984 
	C276.182343,461.069885 253.761734,472.559479 231.289948,483.947449 
	C224.094833,487.593689 216.991501,491.480927 209.561096,494.572784 
	C206.694321,495.765656 203.035477,495.055084 199.242599,494.721924 
	C197.793671,493.835632 196.839645,493.439087 195.885620,493.042542 
	C194.588211,491.601440 193.290817,490.160309 192.107483,488.202271 
	C191.869919,487.123505 191.518280,486.561646 191.166656,485.999786 
	C190.777771,484.288269 190.051117,482.577148 190.049103,480.865173 
	C189.988724,429.631104 189.974808,378.396912 190.076736,327.162994 
	C190.081696,324.679993 191.204010,322.199249 192.352798,319.349213 
	C193.912903,317.955811 194.926208,316.930603 195.939514,315.905396 
	C195.939514,315.905396 195.976746,315.977051 196.345444,315.965179 
	C200.930984,314.911194 205.909576,315.354858 208.000702,310.166656 
	C218.974106,309.592438 223.999863,314.389709 223.999939,325.439667 
	C224.000122,357.996033 224.048996,390.552490 223.958801,423.108612 
	C223.940689,429.648865 225.363892,435.267273 231.754089,439.254761 
	C232.780273,439.725555 233.411880,439.806122 234.043488,439.886688 
z"/>
<path fill="#8976FF" opacity="1.000000" stroke="none" 
	d="
M361.626282,105.036240 
	C360.505981,106.459152 359.351410,108.786133 357.558319,109.492752 
	C332.321899,119.437820 306.989929,129.139999 281.698608,138.946152 
	C250.975830,150.858215 220.271103,162.816833 189.555634,174.747772 
	C162.563934,185.232285 135.571320,195.714539 108.563797,206.158188 
	C107.350380,206.627411 105.985260,206.704346 104.288132,206.960785 
	C108.453651,204.681839 112.879799,202.043900 117.612511,200.187607 
	C155.196213,185.446182 192.805298,170.768021 230.473907,156.245010 
	C255.327316,146.662842 280.358002,137.539124 305.185486,127.891426 
	C323.990082,120.584152 342.599091,112.773499 361.626282,105.036240 
z"/>
<path fill="#8976FF" opacity="1.000000" stroke="none" 
	d="
M385.630127,183.213425 
	C384.973785,184.285004 384.158447,185.946045 382.888580,186.440964 
	C360.876831,195.019699 338.790192,203.405762 316.758514,211.933746 
	C285.881409,223.885605 255.035202,235.917175 224.177734,247.919693 
	C201.381943,256.786499 178.598251,265.684601 155.772568,274.473755 
	C154.427719,274.991577 152.755981,274.660461 151.118622,274.445526 
	C167.807526,267.520020 184.587570,260.805115 201.427826,254.244797 
	C220.684341,246.743210 240.000885,239.395874 259.279175,231.950027 
	C275.543640,225.668182 291.792786,219.346710 308.044922,213.033005 
	C326.104980,206.016922 344.152496,198.968491 362.222168,191.977402 
	C369.879364,189.014877 377.579163,186.162582 385.630127,183.213425 
z"/>
<path fill="#8976FF" opacity="1.000000" stroke="none" 
	d="
M384.628662,6.214666 
	C383.815674,7.340851 382.841095,9.059449 381.415314,9.610575 
	C329.555756,29.655861 277.666870,49.625568 225.747116,69.514496 
	C216.137009,73.195847 206.378876,76.490776 196.287262,79.960815 
	C198.524109,78.515755 201.040192,76.757446 203.820282,75.680962 
	C232.142426,64.714264 260.518890,53.888050 288.857178,42.962837 
	C313.130615,33.604729 337.367188,24.151058 361.634857,14.777907 
	C369.150574,11.875040 376.714661,9.097553 384.628662,6.214666 
z"/>
<path fill="#8976FF" opacity="1.000000" stroke="none" 
	d="
M358.851501,277.723755 
	C358.212585,278.597534 357.475525,280.189789 356.294678,280.654572 
	C332.373871,290.069427 308.408905,299.372498 284.427216,308.631714 
	C282.599060,309.337524 280.580078,309.549011 278.239563,309.996674 
	C282.119781,307.906860 286.292328,305.511841 290.720490,303.764862 
	C312.631073,295.120972 334.607697,286.644470 356.571594,278.136261 
	C357.168671,277.904999 357.885620,277.983276 358.851501,277.723755 
z"/>
<path fill="#8976FF" opacity="1.000000" stroke="none" 
	d="
M365.093842,240.463470 
	C365.771057,241.069824 366.882782,242.132019 366.899384,243.211090 
	C367.029297,251.643219 366.975128,260.078888 366.886383,268.512482 
	C366.878845,269.225769 366.206177,269.932037 365.504578,270.820770 
	C365.118103,260.975708 365.069550,250.951416 365.093842,240.463470 
z"/>
<path fill="#8976FF" opacity="1.000000" stroke="none" 
	d="
M255.241302,432.368958 
	C255.556122,432.480530 255.689301,432.869812 255.560928,433.130005 
	C253.865768,436.565857 243.419815,441.403870 239.117859,440.444702 
	C244.313293,437.640015 249.625687,435.113342 255.241302,432.368958 
z"/>
<path fill="#8976FF" opacity="1.000000" stroke="none" 
	d="
M207.634430,310.209656 
	C205.909576,315.354858 200.930984,314.911194 196.309662,315.946503 
	C199.692841,314.044006 203.480484,312.148346 207.634430,310.209656 
z"/>
<path fill="#8976FF" opacity="1.000000" stroke="none" 
	d="
M266.871887,426.717102 
	C266.864136,431.310364 263.176056,430.171570 259.923401,430.308350 
	C261.887878,429.069672 264.238068,427.985687 266.871887,426.717102 
z"/>
<path fill="#8976FF" opacity="1.000000" stroke="none" 
	d="
M148.641830,274.203033 
	C147.599121,279.180237 145.334061,276.100250 143.128357,274.473083 
	C144.761002,274.190887 146.521988,274.215149 148.641830,274.203033 
z"/>
<path fill="#8976FF" opacity="1.000000" stroke="none" 
	d="
M271.032410,423.377472 
	C271.891388,425.643707 271.081055,426.886475 267.928345,426.304596 
	C268.650177,425.318817 269.762238,424.484161 271.032410,423.377472 
z"/>
<path fill="#8976FF" opacity="1.000000" stroke="none" 
	d="
M195.635529,316.031189 
	C194.926208,316.930603 193.912903,317.955811 192.533127,318.990845 
	C193.221619,318.052795 194.276581,317.104889 195.635529,316.031189 
z"/>
<path fill="#8976FF" opacity="1.000000" stroke="none" 
	d="
M361.934753,275.678436 
	C361.515228,276.159363 360.872803,276.792175 359.883179,277.289673 
	C360.261261,276.712982 360.986542,276.271667 361.934753,275.678436 
z"/>
<path fill="#8976FF" opacity="1.000000" stroke="none" 
	d="
M196.018280,493.350250 
	C196.839645,493.439087 197.793671,493.835632 198.873840,494.532776 
	C198.050293,494.441528 197.100616,494.049744 196.018280,493.350250 
z"/>
<path fill="#8976FF" opacity="1.000000" stroke="none" 
	d="
M192.097168,136.327805 
	C192.756958,136.816147 193.347244,137.632492 193.947540,138.781677 
	C193.314270,138.294937 192.670975,137.475357 192.097168,136.327805 
z"/>
<path fill="#8976FF" opacity="1.000000" stroke="none" 
	d="
M365.037292,101.369514 
	C364.679688,102.025963 364.166626,102.952904 363.269531,103.918716 
	C363.550934,103.185059 364.216370,102.412529 365.037292,101.369514 
z"/>
<path fill="#8976FF" opacity="1.000000" stroke="none" 
	d="
M395.981689,8.649714 
	C395.160339,8.560891 394.206299,8.164366 393.126160,7.467252 
	C393.949707,7.558445 394.899353,7.950228 395.981689,8.649714 
z"/>
<path fill="#8976FF" opacity="1.000000" stroke="none" 
	d="
M364.070801,273.325958 
	C363.876312,273.811340 363.552704,274.534821 362.876648,275.208435 
	C362.996674,274.627075 363.469177,274.095581 364.070801,273.325958 
z"/>
<path fill="#8976FF" opacity="1.000000" stroke="none" 
	d="
M259.000122,430.634705 
	C258.806610,430.899323 258.456726,431.268707 257.962433,431.402405 
	C258.159943,431.024292 258.501831,430.881927 259.000122,430.634705 
z"/>
<path fill="#8976FF" opacity="1.000000" stroke="none" 
	d="
M233.919662,439.600037 
	C233.411880,439.806122 232.780273,439.725555 232.074341,439.405823 
	C232.598633,439.215576 233.197235,439.264496 233.919662,439.600037 
z"/>
<path fill="#8976FF" opacity="1.000000" stroke="none" 
	d="
M191.096497,486.304901 
	C191.518280,486.561646 191.869919,487.123505 192.056549,487.866608 
	C191.603165,487.568573 191.314758,487.089294 191.096497,486.304901 
z"/>
<path fill="#8976FF" opacity="1.000000" stroke="none" 
	d="
M102.130470,318.269836 
	C102.381538,318.157593 102.574448,318.328949 102.863068,318.679199 
	C102.685249,318.731812 102.389763,318.630280 102.130470,318.269836 
z"/>
<path fill="#8976FF" opacity="1.000000" stroke="none" 
	d="
M397.869537,187.730133 
	C397.618469,187.842407 397.425537,187.671066 397.136963,187.320816 
	C397.314758,187.268188 397.610260,187.369720 397.869537,187.730133 
z"/>
</svg>